<?xml version="1.0" encoding="UTF-8" standalone="no"?>
<!-- Created with Inkscape (http://www.inkscape.org/) -->

<svg
   width="33.080002mm"
   height="33.07291mm"
   viewBox="0 0 33.080002 33.07291"
   version="1.1"
   id="svg5"
   sodipodi:docname="LynchburgLogoMain.svg"
   inkscape:version="1.1.1 (3bf5ae0d25, 2021-09-20)"
   xmlns:inkscape="http://www.inkscape.org/namespaces/inkscape"
   xmlns:sodipodi="http://sodipodi.sourceforge.net/DTD/sodipodi-0.dtd"
   xmlns="http://www.w3.org/2000/svg"
   xmlns:svg="http://www.w3.org/2000/svg">
  <sodipodi:namedview
     id="namedview7"
     pagecolor="#505050"
     bordercolor="#eeeeee"
     borderopacity="1"
     inkscape:pageshadow="0"
     inkscape:pageopacity="0"
     inkscape:pagecheckerboard="0"
     inkscape:document-units="mm"
     showgrid="false"
     inkscape:zoom="4.3994184"
     inkscape:cx="64.213033"
     inkscape:cy="73.987053"
     inkscape:window-width="2560"
     inkscape:window-height="1377"
     inkscape:window-x="-8"
     inkscape:window-y="-8"
     inkscape:window-maximized="1"
     inkscape:current-layer="layer1"
     fit-margin-top="0"
     fit-margin-left="0"
     fit-margin-right="0"
     fit-margin-bottom="0" />
  <defs
     id="defs2" />
  <g
     inkscape:label="Layer 1"
     inkscape:groupmode="layer"
     id="layer1"
     transform="translate(-7.15537,-3.9113196)">
    <path
       id="path74850-8-0"
       style="fill:#E35252;fill-opacity:1;stroke-width:0.575757"
       d="m 23.69537,3.91132 a 16.5365,16.5365 0 0 0 -16.54,16.53645 16.5365,16.5365 0 0 0 16.54,16.53646 16.5365,16.5365 0 0 0 16.54,-16.53646 16.5365,16.5365 0 0 0 -16.54,-16.53645 z m 0,1.73426 a 14.802499,14.802499 0 0 1 14.8,14.80271 14.802499,14.802499 0 0 1 -14.8,14.8022 14.802499,14.802499 0 0 1 -1.93,-0.15193 V 5.79751 a 14.802499,14.802499 0 0 1 1.93,-0.15193 z m -9.05,3.12797 v 23.34948 a 14.802499,14.802499 0 0 1 -5.75,-11.67474 14.802499,14.802499 0 0 1 5.75,-11.67474 z" />
  </g>
</svg>
