<?xml version="1.0" encoding="UTF-8" standalone="no"?>
<!-- Created with Inkscape (http://www.inkscape.org/) -->

<svg
   width="128"
   height="128"
   viewBox="0 0 33.866666 33.866667"
   version="1.1"
   id="svg5"
   sodipodi:docname="LynchburgLogoMainRed.svg"
   inkscape:version="1.1.1 (3bf5ae0d25, 2021-09-20)"
   xmlns:inkscape="http://www.inkscape.org/namespaces/inkscape"
   xmlns:sodipodi="http://sodipodi.sourceforge.net/DTD/sodipodi-0.dtd"
   xmlns="http://www.w3.org/2000/svg"
   xmlns:svg="http://www.w3.org/2000/svg">
  <sodipodi:namedview
     id="namedview7"
     pagecolor="#505050"
     bordercolor="#eeeeee"
     borderopacity="1"
     inkscape:pageshadow="0"
     inkscape:pageopacity="0"
     inkscape:pagecheckerboard="0"
     inkscape:document-units="mm"
     showgrid="false"
     inkscape:zoom="4.3994184"
     inkscape:cx="43.983086"
     inkscape:cy="73.987052"
     inkscape:window-width="2560"
     inkscape:window-height="1377"
     inkscape:window-x="-8"
     inkscape:window-y="-8"
     inkscape:window-maximized="1"
     inkscape:current-layer="layer1"
     fit-margin-top="0"
     fit-margin-left="0"
     fit-margin-right="0"
     fit-margin-bottom="0"
     units="px"
     width="128px" />
  <defs
     id="defs2" />
  <g
     inkscape:label="Layer 1"
     inkscape:groupmode="layer"
     id="layer1"
     transform="translate(-7.15537,-3.9113196)">
    <path
       id="path74850-8-0-91-2"
       style="fill:#e35252;fill-opacity:1;stroke-width:0.589515"
       d="M 24.088865,3.91132 A 16.929913,16.933374 0 0 0 7.15537,20.844643 16.929913,16.933374 0 0 0 24.088865,37.777976 16.929913,16.933374 0 0 0 41.02237,20.844643 16.929913,16.933374 0 0 0 24.088865,3.91132 Z m 0,1.775882 A 15.154659,15.157757 0 0 1 39.240973,20.845176 15.154659,15.157757 0 0 1 24.088865,36.002627 15.154659,15.157757 0 0 1 22.112946,35.847051 V 5.842778 a 15.154659,15.157757 0 0 1 1.975919,-0.155576 z m -9.2653,3.203041 V 32.800108 A 15.154659,15.157757 0 0 1 8.936767,20.845176 15.154659,15.157757 0 0 1 14.823565,8.890243 Z" />
  </g>
</svg>
